<svg width="69" height="24" viewBox="0 0 69 24" fill="none" xmlns="http://www.w3.org/2000/svg">
<path d="M0 2.70752C0 1.86073 0.254827 1.20334 0.76448 0.735376C1.29629 0.245126 2.02753 0 2.9582 0L15.8546 19.7214L16.0873 19.5209L15.1234 17.9164V0C16.1427 0 16.9072 0.222842 17.4168 0.668525C17.9487 1.11421 18.2146 1.76045 18.2146 2.60724V21.5265C18.2146 22.2396 17.9597 22.8301 17.4501 23.298C16.9626 23.766 16.3311 24 15.5555 24L2.35992 3.84401L2.12725 4.04457L3.09116 5.64903V21.3928C3.09116 22.2396 2.82525 22.8858 2.29344 23.3315C1.78379 23.7772 1.01931 24 0 24V2.70752Z" fill="#1C1B1F"/>
<path d="M29.5646 24C28.213 24 27.0053 23.7437 25.9417 23.2312C24.878 22.6964 24.0471 21.9721 23.4488 21.0585C22.8505 20.1226 22.5514 19.0752 22.5514 17.9164V12.9694C22.5514 11.7883 22.8616 10.7187 23.482 9.76045C24.1246 8.80223 24.9778 8.05571 26.0414 7.52089C27.1272 6.96379 28.3016 6.68524 29.5646 6.68524C30.8277 6.68524 31.98 6.95265 33.0214 7.48747C34.085 8.02228 34.916 8.75766 35.5143 9.69359C36.1347 10.6295 36.445 11.688 36.445 12.8691V15.0084C36.445 15.3649 36.312 15.6657 36.0461 15.9109C35.7802 16.156 35.4589 16.2786 35.0822 16.2786H25.3766V17.7827C25.3766 18.9192 25.7312 19.8329 26.4402 20.5237C27.1715 21.2145 28.213 21.5599 29.5646 21.5599C30.9163 21.5599 31.9467 21.2591 32.6558 20.6574C33.3649 20.0557 33.7194 19.2423 33.7194 18.2173C34.3842 18.1727 34.9382 18.3064 35.3813 18.6184C35.8467 18.9081 36.0793 19.3426 36.0793 19.922C36.0793 20.6351 35.7691 21.3036 35.1487 21.9276C34.5504 22.5515 33.7527 23.0529 32.7555 23.4318C31.7584 23.8106 30.6947 24 29.5646 24ZM33.7527 14.0056V12.8691C33.7527 11.7549 33.3649 10.8524 32.5893 10.1616C31.8359 9.44847 30.8277 9.09192 29.5646 9.09192C28.3016 9.09192 27.2823 9.44847 26.5067 10.1616C25.7533 10.8524 25.3766 11.7549 25.3766 12.8691V14.0056H33.7527Z" fill="#1C1B1F"/>
<path d="M39.7194 24C39.4314 24 39.1212 23.9443 38.7888 23.8329C38.4564 23.7437 38.1794 23.5877 37.9578 23.3649L44.0737 14.9081L38.6558 7.18663C38.8331 7.03064 39.0768 6.90808 39.3871 6.81894C39.7194 6.72981 40.0186 6.68524 40.2845 6.68524C41.1265 6.68524 41.747 6.98607 42.1458 7.58774L45.6026 12.7688L44.9711 13.6713L45.1373 13.805L49.3585 7.58774C49.558 7.29805 49.8239 7.07521 50.1563 6.91922C50.5108 6.76323 50.8875 6.68524 51.2864 6.68524C51.5523 6.68524 51.8403 6.72981 52.1505 6.81894C52.4608 6.90808 52.7045 7.03064 52.8818 7.18663L47.4307 14.9081L53.5133 23.3649C53.3139 23.5877 53.0591 23.7437 52.7488 23.8329C52.4608 23.9443 52.1838 24 51.9179 24C51.5633 24 51.2088 23.922 50.8543 23.766C50.4997 23.6323 50.2449 23.4429 50.0898 23.1978L45.7356 16.8134L41.4146 23.1978C41.2373 23.4652 40.9936 23.6657 40.6834 23.7994C40.3731 23.9331 40.0518 24 39.7194 24Z" fill="#1C1B1F"/>
<path d="M61.8205 24C60.4689 24 59.239 23.7437 58.1311 23.2312C57.0453 22.7187 56.1922 22.0279 55.5717 21.1588C54.9735 20.2674 54.6743 19.2758 54.6743 18.1838V12.702C54.6743 11.5877 54.9735 10.5738 55.5717 9.66017C56.1922 8.74652 57.0453 8.02228 58.1311 7.48747C59.2169 6.95265 60.4467 6.68524 61.8205 6.68524C63.1944 6.68524 64.4242 6.95265 65.51 7.48747C66.6179 8.02228 67.471 8.74652 68.0693 9.66017C68.6898 10.5738 69 11.5877 69 12.702V18.1838C69 19.2758 68.6898 20.2674 68.0693 21.1588C67.4489 22.0279 66.5958 22.7187 65.51 23.2312C64.4242 23.7437 63.1944 24 61.8205 24ZM61.8205 21.493C63.1501 21.493 64.2026 21.1811 64.9782 20.5571C65.7759 19.9109 66.1748 19.0752 66.1748 18.0501V12.8022C66.1748 11.7326 65.7759 10.8635 64.9782 10.195C64.2026 9.52646 63.1501 9.1922 61.8205 9.1922C60.5132 9.1922 59.4606 9.52646 58.6629 10.195C57.8652 10.8635 57.4663 11.7326 57.4663 12.8022V18.0501C57.4663 19.0752 57.8541 19.9109 58.6297 20.5571C59.4274 21.1811 60.491 21.493 61.8205 21.493Z" fill="#1C1B1F"/>
</svg>
