<svg width="44" height="24" viewBox="0 0 44 24" fill="none" xmlns="http://www.w3.org/2000/svg">
<path d="M0 7.64217C0 7.01171 0.204195 6.52609 0.612585 6.1853C1.03799 5.82748 1.63356 5.64856 2.39929 5.64856V22.0064C2.39929 22.6368 2.18659 23.131 1.76118 23.4888C1.35279 23.8296 0.765731 24 0 24V7.64217ZM1.45489 0.869011C1.69312 0.28967 2.34824 0 3.42026 0H4.9262L2.32272 3.78275C2.18659 4.00426 2.01642 4.1491 1.81223 4.21725C1.60803 4.28541 1.28473 4.31949 0.842304 4.31949L0.0255244 4.29393L1.45489 0.869011Z" fill="black"/>
<path d="M6.49375 7.0032C6.49375 6.67945 6.60436 6.41534 6.82557 6.21086C7.0638 5.98935 7.36158 5.87859 7.71892 5.87859H14.7636C16.4142 5.87859 17.7245 6.36422 18.6944 7.33546C19.6813 8.28967 20.1748 9.56763 20.1748 11.1693C20.1748 13.18 19.2985 14.6028 17.5458 15.4377V15.5144C18.3115 15.8381 18.8986 16.3323 19.307 16.9968C19.7154 17.6443 19.9196 18.4366 19.9196 19.3738V22.0064C19.9196 22.6539 19.7154 23.148 19.307 23.4888C18.8986 23.8296 18.303 24 17.5203 24V19.5272C17.5203 18.5218 17.2906 17.7636 16.8311 17.2524C16.3887 16.7242 15.7251 16.4601 14.8402 16.4601H8.86752V22.0064C8.86752 22.6539 8.66333 23.148 8.25494 23.4888C7.86356 23.8296 7.2765 24 6.49375 24V7.0032ZM14.6871 14.3898C15.623 14.3898 16.3632 14.1001 16.9077 13.5208C17.4692 12.9414 17.75 12.1491 17.75 11.1438C17.75 10.1214 17.4862 9.33759 16.9587 8.79233C16.4312 8.24707 15.674 7.97444 14.6871 7.97444H8.86752V14.3898H14.6871Z" fill="black"/>
<path d="M24.0039 7.64217C24.0039 7.01171 24.2081 6.52609 24.6164 6.1853C25.0419 5.82748 25.6374 5.64856 26.4032 5.64856V22.0064C26.4032 22.6368 26.1904 23.131 25.765 23.4888C25.3567 23.8296 24.7696 24 24.0039 24V7.64217Z" fill="black"/>
<path d="M36.8787 24C35.4493 24 34.2072 23.7955 33.1521 23.3866C32.1142 22.9776 31.3229 22.4324 30.7784 21.7508C30.2339 21.0692 29.9616 20.3365 29.9616 19.5527C29.9616 18.9052 30.1318 18.4111 30.4721 18.0703C30.8124 17.7125 31.3314 17.5335 32.0291 17.5335C32.0291 18.9819 32.463 20.0895 33.3308 20.8562C34.1986 21.606 35.4153 21.9808 36.9808 21.9808C38.4782 21.9808 39.6268 21.7338 40.4266 21.2396C41.2264 20.7284 41.6262 19.9787 41.6262 18.9904C41.6262 18.394 41.4731 17.9084 41.1668 17.5335C40.8775 17.1416 40.3755 16.8094 39.6609 16.5367C38.9632 16.2471 37.9507 15.9574 36.6235 15.6677C35.058 15.3269 33.8158 14.935 32.8969 14.492C31.978 14.0319 31.3059 13.4782 30.8805 12.8307C30.4551 12.1832 30.2424 11.3823 30.2424 10.4281C30.2424 9.47391 30.5061 8.63898 31.0336 7.92332C31.5781 7.19063 32.3439 6.62833 33.3308 6.23642C34.3178 5.84452 35.4664 5.64856 36.7766 5.64856C38.0188 5.64856 39.1248 5.82748 40.0948 6.1853C41.0817 6.52609 41.8474 7.02023 42.392 7.66773C42.9535 8.29819 43.2343 9.01384 43.2343 9.8147C43.2343 10.3088 43.0726 10.7007 42.7493 10.9904C42.443 11.263 41.958 11.3994 41.2944 11.3994C41.1072 10.1044 40.6478 9.15868 39.9161 8.5623C39.2014 7.96592 38.1549 7.66773 36.7766 7.66773C35.4493 7.66773 34.4284 7.90628 33.7137 8.38339C32.999 8.84345 32.6417 9.49947 32.6417 10.3514C32.6417 10.9478 32.7693 11.442 33.0245 11.8339C33.2968 12.2087 33.7477 12.5325 34.3773 12.8051C35.0239 13.0777 35.9258 13.3419 37.0829 13.5974C38.8186 13.9723 40.1799 14.3898 41.1668 14.8498C42.1708 15.3099 42.8939 15.8722 43.3364 16.5367C43.7788 17.2013 44 18.0192 44 18.9904C44 20.541 43.3534 21.7678 42.0601 22.6709C40.7669 23.557 39.0398 24 36.8787 24Z" fill="black"/>
</svg>
