<svg width="171" height="24" viewBox="0 0 171 24" fill="none" xmlns="http://www.w3.org/2000/svg">
<path d="M0 1.77159C0 1.34819 0.156632 1.00279 0.469897 0.735376C0.783162 0.445683 1.16355 0.300836 1.61108 0.300836H16.5807C16.5807 1.23677 16.3905 1.92758 16.0101 2.37326C15.6297 2.81894 15.0479 3.04178 14.2647 3.04178H3.15502V10.3621H12.553C12.553 11.2981 12.3628 11.9889 11.9824 12.4345C11.602 12.8802 11.0202 13.1031 10.237 13.1031H3.15502V21.4596C3.15502 22.3287 2.8977 22.9749 2.38305 23.3983C1.8684 23.7994 1.07405 24 0 24V1.77159Z" fill="black"/>
<path d="M30.1203 21.5265C30.1203 23.1755 29.1805 24 27.301 24V21.8607C27.5023 21.6602 27.7373 21.3593 28.0058 20.9582L27.8715 20.8245C27.2003 21.7827 26.35 22.5515 25.3207 23.1309C24.3138 23.7103 23.2061 24 21.9978 24C20.7895 24 19.7155 23.7437 18.7757 23.2312C17.8583 22.7187 17.1422 22.0056 16.6276 21.0919C16.1353 20.1783 15.8892 19.1532 15.8892 18.0167V8.82451C15.8892 8.08914 16.1353 7.55432 16.6276 7.22006C17.1199 6.86351 17.8583 6.68524 18.8428 6.68524V17.883C18.8428 18.9526 19.1561 19.8106 19.7826 20.4568C20.4315 21.1031 21.3825 21.4262 22.6356 21.4262C23.4635 21.4262 24.2243 21.2591 24.9179 20.9248C25.6116 20.5682 26.1598 20.1003 26.5626 19.5209C26.9877 18.9192 27.2003 18.273 27.2003 17.5822V8.82451C27.2003 8.08914 27.4352 7.55432 27.9051 7.22006C28.3974 6.86351 29.1358 6.68524 30.1203 6.68524V21.5265Z" fill="black"/>
<path d="M41.4889 24C39.9002 24 38.7142 23.5543 37.9311 22.663C37.1479 21.7493 36.7563 20.5571 36.7563 19.0864V9.32591H33.6349C33.6349 8.56825 33.8027 7.98886 34.1383 7.58774C34.474 7.18663 34.9327 6.98607 35.5145 6.98607H36.7899V3.81059C36.7899 3.07521 37.0248 2.54039 37.4947 2.20613C37.987 1.84958 38.7142 1.67131 39.6764 1.67131V6.98607H44.1404C44.1404 8.54596 43.4356 9.32591 42.0259 9.32591H39.71V18.9861C39.71 19.8774 39.8666 20.5125 40.1799 20.8914C40.5155 21.2479 41.1085 21.4262 41.9588 21.4262C42.7419 21.4262 43.4803 21.2256 44.174 20.8245C44.4649 21.1142 44.6103 21.5042 44.6103 21.9944C44.6103 22.5292 44.3306 22.9972 43.7712 23.3983C43.2118 23.7994 42.451 24 41.4889 24Z" fill="black"/>
<path d="M62.0455 21.5265C62.0455 23.1755 61.1057 24 59.2262 24V21.8607C59.4275 21.6602 59.6625 21.3593 59.931 20.9582L59.7967 20.8245C59.1255 21.7827 58.2752 22.5515 57.2459 23.1309C56.239 23.7103 55.1313 24 53.923 24C52.7147 24 51.6407 23.7437 50.7009 23.2312C49.7835 22.7187 49.0674 22.0056 48.5528 21.0919C48.0605 20.1783 47.8144 19.1532 47.8144 18.0167V8.82451C47.8144 8.08914 48.0605 7.55432 48.5528 7.22006C49.0451 6.86351 49.7835 6.68524 50.768 6.68524V17.883C50.768 18.9526 51.0813 19.8106 51.7078 20.4568C52.3567 21.1031 53.3077 21.4262 54.5608 21.4262C55.3887 21.4262 56.1495 21.2591 56.8431 20.9248C57.5368 20.5682 58.085 20.1003 58.4877 19.5209C58.9129 18.9192 59.1255 18.273 59.1255 17.5822V8.82451C59.1255 8.08914 59.3604 7.55432 59.8303 7.22006C60.3226 6.86351 61.061 6.68524 62.0455 6.68524V21.5265Z" fill="black"/>
<path d="M74.0182 9.25905C72.7652 9.25905 71.7247 9.63788 70.8968 10.3955C70.0688 11.1309 69.6549 12.0334 69.6549 13.1031V21.8607C69.6549 22.5961 69.4087 23.1421 68.9165 23.4986C68.4466 23.8329 67.7194 24 66.7348 24V9.15877C66.7348 7.50975 67.6746 6.68524 69.5542 6.68524V8.72423C69.1962 9.10306 68.95 9.43733 68.8158 9.72702L68.95 9.86072C70.3821 7.74373 72.1722 6.68524 74.3203 6.68524C75.1258 6.68524 75.7412 6.8858 76.1663 7.28691C76.5915 7.66574 76.804 8.13371 76.804 8.69081C76.804 9.09192 76.7033 9.44847 76.502 9.76045C75.8754 9.42618 75.0475 9.25905 74.0182 9.25905Z" fill="black"/>
<path d="M85.576 24C84.2111 24 82.9916 23.7437 81.9176 23.2312C80.8435 22.6964 80.0044 21.9721 79.4003 21.0585C78.7961 20.1226 78.494 19.0752 78.494 17.9164V12.9694C78.494 11.7883 78.8073 10.7187 79.4338 9.76045C80.0827 8.80223 80.9442 8.05571 82.0183 7.52089C83.1147 6.96379 84.3006 6.68524 85.576 6.68524C86.8515 6.68524 88.015 6.95265 89.0667 7.48747C90.1408 8.02228 90.9799 8.75766 91.584 9.69359C92.2105 10.6295 92.5238 11.688 92.5238 12.8691V15.0084C92.5238 15.3649 92.3895 15.6657 92.121 15.9109C91.8525 16.156 91.5281 16.2786 91.1477 16.2786H81.347V17.7827C81.347 18.9192 81.705 19.8329 82.421 20.5237C83.1594 21.2145 84.2111 21.5599 85.576 21.5599C86.941 21.5599 87.9815 21.2591 88.6975 20.6574C89.4135 20.0557 89.7716 19.2423 89.7716 18.2173C90.4428 18.1727 91.0022 18.3064 91.4498 18.6184C91.9197 18.9081 92.1546 19.3426 92.1546 19.922C92.1546 20.6351 91.8413 21.3036 91.2148 21.9276C90.6107 22.5515 89.8051 23.0529 88.7982 23.4318C87.7913 23.8106 86.7172 24 85.576 24ZM89.8051 14.0056V12.8691C89.8051 11.7549 89.4135 10.8524 88.6304 10.1616C87.8696 9.44847 86.8515 9.09192 85.576 9.09192C84.3006 9.09192 83.2713 9.44847 82.4882 10.1616C81.7274 10.8524 81.347 11.7549 81.347 12.8691V14.0056H89.8051Z" fill="black"/>
<path d="M105.052 2.70752C105.052 1.86073 105.309 1.20334 105.824 0.735376C106.361 0.245125 107.099 0 108.039 0L121.062 19.7214L121.297 19.5209L120.323 17.9164V0C121.353 0 122.125 0.222842 122.639 0.668525C123.176 1.11421 123.445 1.76045 123.445 2.60724V21.5265C123.445 22.2396 123.187 22.8301 122.673 23.298C122.18 23.766 121.543 24 120.76 24L107.435 3.84401L107.2 4.04457L108.173 5.64903V21.3928C108.173 22.2396 107.905 22.8858 107.368 23.3315C106.853 23.7772 106.081 24 105.052 24V2.70752Z" fill="black"/>
<path d="M134.906 24C133.541 24 132.322 23.7437 131.248 23.2312C130.174 22.6964 129.334 21.9721 128.73 21.0585C128.126 20.1226 127.824 19.0752 127.824 17.9164V12.9694C127.824 11.7883 128.137 10.7187 128.764 9.76045C129.413 8.80223 130.274 8.05571 131.348 7.52089C132.445 6.96379 133.631 6.68524 134.906 6.68524C136.181 6.68524 137.345 6.95265 138.397 7.48747C139.471 8.02228 140.31 8.75766 140.914 9.69359C141.541 10.6295 141.854 11.688 141.854 12.8691V15.0084C141.854 15.3649 141.72 15.6657 141.451 15.9109C141.183 16.156 140.858 16.2786 140.478 16.2786H130.677V17.7827C130.677 18.9192 131.035 19.8329 131.751 20.5237C132.489 21.2145 133.541 21.5599 134.906 21.5599C136.271 21.5599 137.311 21.2591 138.028 20.6574C138.744 20.0557 139.102 19.2423 139.102 18.2173C139.773 18.1727 140.332 18.3064 140.78 18.6184C141.25 18.9081 141.485 19.3426 141.485 19.922C141.485 20.6351 141.171 21.3036 140.545 21.9276C139.941 22.5515 139.135 23.0529 138.128 23.4318C137.121 23.8106 136.047 24 134.906 24ZM139.135 14.0056V12.8691C139.135 11.7549 138.744 10.8524 137.96 10.1616C137.2 9.44847 136.181 9.09192 134.906 9.09192C133.631 9.09192 132.601 9.44847 131.818 10.1616C131.057 10.8524 130.677 11.7549 130.677 12.8691V14.0056H139.135Z" fill="black"/>
<path d="M151.803 24C150.662 24 149.588 23.8329 148.581 23.4986C147.574 23.1421 146.758 22.6407 146.131 21.9944C145.527 21.3482 145.225 20.5905 145.225 19.7214C145.225 18.6518 145.874 18.0724 147.172 17.9833C147.395 19.2312 147.921 20.156 148.749 20.7577C149.599 21.337 150.673 21.6267 151.971 21.6267C153.269 21.6267 154.276 21.4373 154.992 21.0585C155.708 20.6797 156.066 20.1003 156.066 19.3203C156.066 18.7632 155.921 18.3175 155.63 17.9833C155.339 17.6267 154.869 17.3259 154.22 17.0808C153.594 16.8134 152.687 16.5571 151.501 16.312C150.025 15.9777 148.85 15.6212 147.977 15.2423C147.104 14.8635 146.433 14.3621 145.963 13.7382C145.516 13.1142 145.292 12.2897 145.292 11.2646C145.292 10.3955 145.561 9.6156 146.098 8.92479C146.635 8.2117 147.373 7.66574 148.313 7.28691C149.275 6.8858 150.36 6.68524 151.569 6.68524C152.687 6.68524 153.739 6.84123 154.724 7.1532C155.73 7.46518 156.536 7.91086 157.14 8.49025C157.767 9.06964 158.08 9.73816 158.08 10.4958C158.08 11.0084 157.879 11.4206 157.476 11.7326C157.073 12.0223 156.514 12.1894 155.798 12.234C155.73 11.2535 155.328 10.4847 154.589 9.92758C153.873 9.34819 152.866 9.0585 151.569 9.0585C150.494 9.0585 149.644 9.25905 149.018 9.66017C148.391 10.0613 148.078 10.5961 148.078 11.2646C148.078 11.9777 148.369 12.5125 148.951 12.8691C149.555 13.2033 150.573 13.5265 152.005 13.8384C154.354 14.3064 156.077 14.9526 157.174 15.7772C158.293 16.5794 158.852 17.727 158.852 19.2201C158.852 20.7354 158.237 21.9164 157.006 22.7632C155.775 23.5877 154.041 24 151.803 24Z" fill="black"/>
<path d="M167.879 24C166.29 24 165.104 23.5543 164.321 22.663C163.538 21.7493 163.146 20.5571 163.146 19.0864V9.32591H160.025C160.025 8.56825 160.192 7.98886 160.528 7.58774C160.864 7.18663 161.322 6.98607 161.904 6.98607H163.18V3.81059C163.18 3.07521 163.415 2.54039 163.884 2.20613C164.377 1.84958 165.104 1.67131 166.066 1.67131V6.98607H170.53C170.53 8.54596 169.825 9.32591 168.416 9.32591H166.1V18.9861C166.1 19.8774 166.256 20.5125 166.57 20.8914C166.905 21.2479 167.498 21.4262 168.348 21.4262C169.132 21.4262 169.87 21.2256 170.564 20.8245C170.855 21.1142 171 21.5042 171 21.9944C171 22.5292 170.72 22.9972 170.161 23.3983C169.602 23.7994 168.841 24 167.879 24Z" fill="black"/>
</svg>
