<svg width="52" height="52" viewBox="0 0 52 52" fill="none" xmlns="http://www.w3.org/2000/svg">
<path d="M19.7402 25.7461C20.5801 25.5996 21.459 25.6191 22.3184 25.668C24.2715 25.7754 26.2246 25.9609 28.1777 25.7852C29.1055 25.6973 30.043 25.6094 30.9805 25.6289C32.6797 25.6582 34.1055 26.2148 34.9453 27.8359C35.3652 28.6367 35.4629 29.4961 35.4336 30.3848C35.3652 32.8848 34.2813 34.3105 31.8984 35.0234C29.9844 35.5898 28.0215 35.668 26.0488 35.6289C25.3164 35.6289 24.584 35.668 23.8516 35.6191C22.3379 35.5313 20.8535 35.3066 19.418 34.7793C17.9336 34.2324 17.0449 33.1875 16.7227 31.6738C16.5957 31.0879 16.5371 30.4727 16.5469 29.877C16.5664 27.8555 17.9336 26.0488 19.7402 25.7461ZM29.3496 32.3574C29.9844 33.0508 30.9023 33.0605 31.5566 32.3867C32.0352 31.8984 32.3086 31.1465 32.3086 30.209C32.2891 29.5742 32.1035 28.8809 31.5566 28.3242C30.9023 27.6504 29.9844 27.6602 29.3496 28.3438C28.3926 29.3789 28.3926 31.3223 29.3496 32.3574ZM20.4727 32.4063C21.0684 33.0215 21.9277 33.041 22.5625 32.4746C23.6563 31.4785 23.6563 29.2617 22.5625 28.2559C21.9375 27.6797 21.0781 27.6992 20.4727 28.3145C19.916 28.8809 19.7305 29.5938 19.7012 30.3555C19.7305 31.127 19.9258 31.8301 20.4727 32.4063Z" fill="white" stroke="white" stroke-width="0.390625"/>
<path d="M4.90625 1H47.0938C49.252 1 51 2.74805 51 4.90625V47.0938C51 49.252 49.252 51 47.0938 51H4.90625C2.74805 51 1 49.252 1 47.0938V4.90625C1 2.74805 2.74805 1 4.90625 1ZM13.1875 28.1875C13.3242 29.3008 13.5586 30.4434 13.959 31.4883C15.1309 34.4863 17.4746 36.1367 20.5801 36.6348C22.3574 36.918 24.1836 36.9277 26.1562 37.0742C27.9238 36.918 29.8672 36.8984 31.752 36.5664C35.4043 35.9219 37.8848 33.3633 38.6074 29.7012C38.9785 27.8359 39.0859 25.9609 38.5098 24.1055C38.207 23.1484 37.709 22.2988 37.0645 21.5273C36.9766 21.4297 36.8984 21.2832 36.9082 21.1562C37.0156 19.4766 36.8203 17.8164 36.3223 16.2148C35.9121 14.877 36.2148 14.9551 34.7305 15.3457C32.9434 15.8145 31.3809 16.7812 29.8477 17.7871C29.6719 17.9043 29.3984 17.9531 29.1836 17.9141C27.0156 17.582 24.8574 17.5625 22.6895 17.9434C22.5332 17.9727 22.3281 17.9141 22.1816 17.8262C20.8633 16.9668 19.5059 16.1953 18.0215 15.6582C17.4844 15.4629 16.918 15.3359 16.3711 15.1699C16.127 15.1016 16.0195 15.1895 15.9316 15.4238C15.2676 17.2793 14.9941 19.1836 15.0918 21.1465C15.1016 21.2539 15.043 21.4004 14.9746 21.4883C13.3047 23.4219 12.8848 25.7266 13.1875 28.1875Z" fill="white" stroke="white" stroke-width="0.390625"/>
</svg>
