<svg width="100" height="100" viewBox="0 0 100 100" fill="none" xmlns="http://www.w3.org/2000/svg">
<circle cx="50" cy="50" r="50" fill="white"/>
<path d="M48.3594 10.0284C46.5691 10.1626 44.5451 10.5754 42.7896 11.1722C41.6209 11.57 41.039 11.8087 40.0444 12.3011C35.1758 14.708 31.3316 18.6965 29.0887 23.6546C28.114 25.813 27.4625 28.1752 27.1741 30.5672C27.0249 31.8453 27 33.1284 27 40.4537V47.8288L27.4128 47.799C29.397 47.6548 30.8641 47.1177 32.3212 46.0037C33.8281 44.8549 34.952 43.179 35.4095 41.3887C35.6631 40.409 35.6631 40.4289 35.7029 36.1122C35.7477 31.3878 35.7576 31.2088 36.2002 29.4881C36.4688 28.4586 36.787 27.6182 37.2943 26.6136C38.0452 25.1167 38.9354 23.9033 40.1091 22.7595C41.2827 21.6157 42.332 20.8647 43.7146 20.1685C47.0415 18.5025 50.8062 18.1892 54.3769 19.2833C56.3213 19.8801 58.1315 20.9145 59.703 22.3218C61.6624 24.0724 63.1096 26.35 63.8655 28.8764C64.2385 30.1097 64.3927 31.1292 64.4324 32.5565C64.4623 33.7948 64.4175 34.4462 64.2186 35.5403C63.8705 37.44 63.0251 39.4939 61.9708 41.0107C61.4635 41.7368 60.6429 42.6618 52.4423 51.7526C47.7428 56.9644 43.7444 61.4054 43.5604 61.6242C42.6354 62.7282 42.0336 64.0162 41.6855 65.6275C41.5463 66.284 41.5562 67.9947 41.7054 68.7357C42.0635 70.5061 42.894 72.0726 44.1025 73.2612C44.4058 73.5596 44.4655 73.5944 44.5252 73.5347C45.2512 72.744 68.1573 47.2967 68.1722 47.2569C68.1822 47.2271 68.3562 46.9884 68.5502 46.7298C70.987 43.5072 72.5187 39.6282 72.9812 35.5105C73.0906 34.5358 73.1304 32.3426 73.0558 31.3778C72.7425 27.2949 71.4395 23.4806 69.2514 20.2481C67.4909 17.6422 65.3177 15.4888 62.7316 13.7831C59.6185 11.7292 56.2268 10.5157 52.4622 10.098C51.6118 10.0085 49.2297 9.96869 48.3594 10.0284Z" fill="black"/>
<path d="M48.7224 34.1827C44.8534 38.4745 39.8355 44.0393 37.5678 46.5557C35.3001 49.0721 33.1865 51.4095 32.8732 51.7526C31.6299 53.1103 30.7049 54.4331 29.7352 56.2234C28.4074 58.695 27.5172 61.5794 27.1691 64.5583C27.0597 65.4783 27.0249 67.5819 27.0945 68.5418C27.4078 72.6943 28.6262 76.2699 30.9039 79.7262C32.8235 82.6405 35.7178 85.3408 38.6619 86.972C40.3726 87.9169 41.422 88.3794 43.0879 88.9165C47.7527 90.4233 53.0093 90.3537 57.6094 88.7375C60.1456 87.8423 62.304 86.6488 64.3578 84.9977C67.9434 82.1183 70.5096 78.4283 71.9567 74.0818C72.5833 72.2069 72.9464 70.3967 73.1005 68.4174C73.1304 67.9947 73.1503 64.8269 73.1503 59.9483V52.1504H72.8519C71.8374 52.1504 70.3852 52.5185 69.321 53.0456C66.5062 54.4381 64.701 57.1434 64.4921 60.2815C64.4722 60.6345 64.4523 62.4249 64.4474 64.2599C64.4474 68.2533 64.4125 68.7456 64.0246 70.3022C62.6769 75.703 58.3603 79.8903 52.9844 81.0093C51.9251 81.2331 51.5173 81.2679 50.0503 81.2679C48.5136 81.2679 47.9019 81.1983 46.6536 80.8899C44.2815 80.3081 41.8248 78.9405 40.119 77.2546C39.5819 76.7225 38.9255 75.9616 38.5276 75.4195C37.8264 74.4697 37.0506 73.0225 36.6329 71.8787C35.7178 69.3921 35.5338 66.4978 36.1306 63.8521C36.5931 61.7883 37.6026 59.6897 38.9155 58.0833C39.1443 57.7999 43.1426 53.349 47.8024 48.1819C52.4622 43.0149 56.4407 38.5888 56.6496 38.3452C57.6243 37.1914 58.2608 35.8487 58.5393 34.3567C58.6288 33.8793 58.6487 33.5959 58.6487 32.7803C58.6487 31.8951 58.6338 31.716 58.5145 31.164C58.1862 29.6273 57.6094 28.4089 56.6545 27.2452C56.3263 26.8474 55.8588 26.3898 55.7793 26.3898C55.7643 26.3898 52.5865 29.8959 48.7224 34.1827Z" fill="black"/>
</svg>
