<svg width="470" height="333" viewBox="0 0 470 333" fill="none" xmlns="http://www.w3.org/2000/svg">
<path d="M95 278C95 272.477 99.4772 268 105 268H285C290.523 268 295 272.477 295 278C295 283.523 290.523 288 285 288H105C99.4772 288 95 283.523 95 278Z" fill="#4E4E4E"/>
<path d="M163 268H227C212.5 268 212 229 212 229L178 229C178 229 177.5 268 163 268Z" fill="#4E4E4E"/>
<path d="M1.76312 1.73361C0.44078 3.03384 0 30.4829 0 116.586V229.705H164.558H329.116V272.323C329.116 320.142 329.41 321.876 338.813 328.81L344.249 333H399.494H454.738L459.587 329.677C469.871 322.309 469.431 328.233 469.871 216.269C470.165 120.053 470.165 115.141 467.521 109.218C462.819 99.1054 459.587 98.2386 423.296 98.2386H392.294V52.2976C392.294 13.1466 392 5.92322 389.943 3.17831L387.739 0H195.559C48.1919 0 3.08546 0.433411 1.76312 1.73361ZM374.369 16.1805C375.691 17.4807 376.132 28.7492 376.132 57.9319V97.9497L358.501 98.5276L340.87 98.961L335.434 104.451L329.85 109.796L329.41 162.527L328.969 215.258H174.108C35.4093 215.258 19.1005 214.969 17.0435 212.947C14.9865 210.924 14.6927 200.089 14.6927 114.275C14.6927 41.318 15.1334 17.4807 16.4558 16.1805C18.9535 13.7245 371.871 13.7245 374.369 16.1805ZM454.15 108.351C461.35 112.252 461.35 111.53 461.35 213.091C461.35 299.05 461.056 308.44 458.852 312.052C457.53 314.364 454.885 316.82 452.975 317.686C450.624 318.698 432.258 319.275 399.494 319.275C344.984 319.275 343.515 319.131 339.254 311.041C337.491 307.718 337.197 291.826 336.756 215.258C336.462 133.489 336.609 122.798 338.813 117.308C342.78 106.907 342.339 107.051 400.081 106.907C432.552 106.907 452.24 107.485 454.15 108.351Z" fill="#4E4E4E"/>
<path d="M171.023 42.4737C125.916 56.7761 103.73 107.34 124.447 148.803C130.765 161.516 144.87 176.252 156.771 182.464C166.468 187.52 184.834 192.143 195.266 192.143C234.201 191.999 267.7 163.394 273.431 125.543C277.691 96.9383 263.293 66.4555 238.021 50.5639C219.802 39.0065 192.18 35.6837 171.023 42.4737ZM189.535 59.9544V69.4893L172.345 69.0559C156.183 68.6225 155.008 68.478 155.008 65.7331C155.008 62.4104 167.056 55.3314 177.781 52.5865C189.535 49.4082 189.535 49.4082 189.535 59.9544ZM214.66 52.8754C222.741 55.1869 235.083 61.3991 236.846 64.144C239.49 68.0446 234.642 69.3448 218.039 69.3448H201.29V59.9544C201.29 49.1192 201.436 49.1192 214.66 52.8754ZM249.775 81.6247C249.775 83.0694 196.294 170.473 195.412 170.473C194.825 170.473 158.093 110.663 145.751 89.2815L140.903 80.9023H195.266C225.239 80.9023 249.775 81.1913 249.775 81.6247ZM143.254 107.196C148.102 115.286 152.216 122.654 152.51 123.665C152.951 125.254 135.319 135.8 132.234 135.8C130.03 135.8 127.385 119.475 128.267 110.518C129.149 101.561 131.793 92.4598 133.409 92.4598C133.997 92.4598 138.405 99.1054 143.254 107.196ZM261.383 101.417C264.174 113.119 262.264 135.8 258.444 135.8C256.681 135.8 238.021 125.543 238.021 124.532C238.021 124.098 240.813 119.042 244.192 113.552C258.591 89.2815 258.444 89.5704 261.383 101.417ZM173.961 158.337C180.132 168.739 184.393 177.552 183.805 178.13C181.601 180.297 167.203 175.24 157.652 169.173C148.543 163.394 135.907 149.669 137.523 147.213C137.964 146.491 142.96 143.313 148.837 140.279C161.032 133.489 157.946 131.322 173.961 158.337ZM241.988 139.99C247.425 143.024 252.126 146.491 252.42 147.647C253.155 151.259 242.282 163.394 233.173 169.173C223.182 175.529 209.224 180.297 207.02 178.13C206.138 177.263 210.399 168.884 218.48 155.593C225.532 143.891 231.556 134.356 231.703 134.356C231.85 134.356 236.405 136.812 241.988 139.99Z" fill="#4E4E4E"/>
<path d="M169.553 101.417C171.61 104.884 178.369 116.297 184.54 126.699C194.384 143.313 196.147 145.48 197.763 143.313C198.645 142.013 204.669 132.044 210.84 121.354C217.158 110.663 223.329 100.406 224.504 98.5275L226.561 95.3492H196.147H165.733L169.553 101.417Z" fill="#4E4E4E"/>
<path d="M367.61 160.649C365.847 161.516 362.909 164.55 360.999 167.439C358.06 172.207 357.766 174.807 357.325 196.044C356.885 216.992 357.032 220.026 359.823 225.949C364.525 236.639 369.961 238.373 398.759 238.373C419.622 238.373 422.855 238.084 428.585 235.339C439.164 230.283 440.045 227.249 440.045 197.922C440.045 159.06 439.898 158.915 398.612 159.06C381.862 159.06 369.667 159.782 367.61 160.649ZM425.793 180.875C427.703 182.753 428.291 208.613 426.675 212.947C425.94 214.969 422.12 215.258 398.906 215.258C375.691 215.258 371.871 214.969 371.137 212.947C370.696 211.646 370.255 204.567 370.255 197.2C370.255 186.798 370.843 183.186 372.606 181.452C374.516 179.574 379.071 179.141 399.493 179.141C416.537 179.141 424.618 179.719 425.793 180.875Z" fill="#4E4E4E"/>
</svg>
