<svg width="196" height="70" viewBox="0 0 196 70" fill="none" xmlns="http://www.w3.org/2000/svg">
<path d="M0 9.8331C0 6.84747 1.16775 4.47844 3.50326 2.72601C5.83876 0.908669 9.01765 0 13.0399 0L33.4756 51.4047L31.2374 57.5382L32.2105 57.9277L54.1059 0.0973562C58.0633 0.0973562 61.2097 1.00603 63.5452 2.82336C65.9456 4.5758 67.1458 6.94483 67.1458 9.93046V70C58.6471 70 54.3978 66.8197 54.3978 60.459V29.3046L57.7065 20.3477L56.636 19.9583L38.8278 66.4951C38.3737 67.5336 37.66 68.3774 36.6869 69.0264C35.7786 69.6755 34.7406 70 33.5729 70C32.4051 70 31.3347 69.6755 30.3616 69.0264C29.4533 68.3774 28.7721 67.5012 28.318 66.3978L10.5098 19.8609L9.43933 20.2503L12.6507 29.2072V60.459C12.6507 66.8197 8.43377 70 0 70V9.8331Z" fill="white"/>
<path d="M96.5563 12.267H73.1039C73.1039 4.73806 76.5098 0.973574 83.3217 0.973574H133.049C133.049 8.50255 129.61 12.267 122.733 12.267H109.596V60.3616C109.596 63.4771 108.493 65.8785 106.288 67.5661C104.082 69.1887 100.838 70 96.5563 70V12.267Z" fill="white"/>
<path d="M141.408 6.91238C141.408 5.22485 142.024 3.82939 143.257 2.72601C144.489 1.55772 146.046 0.973574 147.928 0.973574H173.91C180.917 0.973574 186.334 2.82337 190.161 6.52295C194.054 10.2225 196 15.4149 196 22.1001C196 25.9295 195.221 29.1748 193.664 31.8359C192.107 34.4321 189.74 36.509 186.561 38.0668V38.3588C192.27 40.8901 195.124 45.6931 195.124 52.7677V60.3616C195.124 63.4771 194.021 65.8785 191.816 67.5661C189.61 69.1887 186.366 70 182.084 70V53.3519C182.084 49.9119 181.403 47.3806 180.041 45.758C178.678 44.1354 176.602 43.3241 173.813 43.3241H154.253V60.3616C154.253 63.542 153.15 65.9434 150.944 67.5661C148.803 69.1887 145.624 70 141.408 70V6.91238ZM173.229 32.2253C176.343 32.2253 178.743 31.3491 180.43 29.5967C182.117 27.7793 182.96 25.248 182.96 22.0028C182.96 15.3825 179.716 12.0723 173.229 12.0723H154.253V32.2253H173.229Z" fill="white"/>
</svg>
